<svg xmlns="http://www.w3.org/2000/svg" xmlns:xlink="http://www.w3.org/1999/xlink" width="140" height="100" viewBox="0 0 140 100">
  <defs>
    <linearGradient id="linear-gradient" x1="0.478" y1="1" x2="0.477" gradientUnits="objectBoundingBox">
      <stop offset="0" stop-color="#1287e5"/>
      <stop offset="0.369" stop-color="#1287e5"/>
      <stop offset="1" stop-color="#6cb9f5"/>
    </linearGradient>
    <linearGradient id="linear-gradient-2" x1="0.168" y1="-0.041" x2="1.17" y2="1.025" gradientUnits="objectBoundingBox">
      <stop offset="0.25" stop-color="#f27b2a"/>
      <stop offset="1" stop-color="#ffcd2a"/>
    </linearGradient>
    <linearGradient id="linear-gradient-3" x1="-0.04" y1="0.024" x2="1.134" y2="0.724" gradientUnits="objectBoundingBox">
      <stop offset="0" stop-color="#f48220"/>
      <stop offset="0.19" stop-color="#f58422" stop-opacity="0.6"/>
      <stop offset="0.46" stop-color="#f68726" stop-opacity="0"/>
      <stop offset="0.99" stop-color="#ffd02a" stop-opacity="0"/>
    </linearGradient>
    <linearGradient id="linear-gradient-4" x1="0.219" y1="0.178" x2="1.363" y2="0.861" gradientUnits="objectBoundingBox">
      <stop offset="0.3" stop-color="#f8972f"/>
      <stop offset="1" stop-color="#ffcd2a"/>
    </linearGradient>
    <linearGradient id="linear-gradient-5" x1="0.23" y1="-0.17" x2="0.863" y2="1.347" gradientUnits="objectBoundingBox">
      <stop offset="0" stop-color="#f15c2c"/>
      <stop offset="1" stop-color="#f9a02b"/>
    </linearGradient>
    <linearGradient id="linear-gradient-6" x1="0.001" y1="0.515" x2="1" y2="0.484" gradientUnits="objectBoundingBox">
      <stop offset="0" stop-color="#f1682b"/>
      <stop offset="0.97" stop-color="#fbb428"/>
      <stop offset="0.99" stop-color="#fbb628"/>
    </linearGradient>
    <linearGradient id="linear-gradient-7" x1="0.105" y1="0.495" x2="0.978" y2="0.518" gradientUnits="objectBoundingBox">
      <stop offset="0" stop-color="#f9a02b"/>
      <stop offset="1" stop-color="#f1672b"/>
    </linearGradient>
    <linearGradient id="linear-gradient-8" x1="0.297" y1="0.249" x2="0.926" y2="0.958" gradientUnits="objectBoundingBox">
      <stop offset="0" stop-color="#f16a2b"/>
      <stop offset="1" stop-color="#f9a02b"/>
    </linearGradient>
  </defs>
  <g id="Apply_Now" data-name="Apply Now" transform="translate(-198 -1296)">
    <rect id="Rectangle_7646" data-name="Rectangle 7646" width="140" height="100" rx="7" transform="translate(198 1296)" fill="#f2f2f2"/>
    <rect id="Rectangle_7653" data-name="Rectangle 7653" width="117" height="87" rx="2" transform="translate(212 1305)" fill="#969696"/>
    <rect id="Rectangle_7647" data-name="Rectangle 7647" width="117" height="87" rx="2" transform="translate(210 1302)" fill="#fff"/>
    <g id="Group_11614" data-name="Group 11614" transform="translate(14 5.757)">
      <path id="Path_1560" data-name="Path 1560" d="M27.751,0H2.952C1.322,0,0,1.69,0,3.774V36.983c0,2.084,1.322,3.774,2.952,3.774h24.8c1.63,0,2.952-1.69,2.952-3.774V3.774C30.7,1.69,29.381,0,27.751,0Z" transform="translate(201 1313.243)" fill="url(#linear-gradient)"/>
      <g id="Group_11613" data-name="Group 11613">
        <path id="Path_1132" data-name="Path 1132" d="M4.216,0A4.216,4.216,0,1,1,0,4.216,4.216,4.216,0,0,1,4.216,0Z" transform="translate(212 1316.807)" fill="#fff"/>
        <g id="Group_11612" data-name="Group 11612" transform="translate(2)">
          <rect id="Rectangle_5859" data-name="Rectangle 5859" width="21" height="3" rx="1.5" transform="translate(204 1329)" fill="#fff"/>
          <rect id="Rectangle_7648" data-name="Rectangle 7648" width="21" height="3" rx="1.5" transform="translate(204 1333)" fill="#fff"/>
        </g>
      </g>
    </g>
    <g id="Group_11615" data-name="Group 11615" transform="translate(10 5.757)">
      <path id="Path_18673" data-name="Path 18673" d="M27.751,0H2.952C1.322,0,0,1.69,0,3.774V36.983c0,2.084,1.322,3.774,2.952,3.774h24.8c1.63,0,2.952-1.69,2.952-3.774V3.774C30.7,1.69,29.381,0,27.751,0Z" transform="translate(241 1313.243)" fill="#f7f7f7"/>
      <path id="Path_1132-2" data-name="Path 1132" d="M4.216,0A4.216,4.216,0,1,1,0,4.216,4.216,4.216,0,0,1,4.216,0Z" transform="translate(252.5 1316.807)" fill="#fff" stroke="#727272" stroke-width="0.2"/>
      <g id="Group_11611" data-name="Group 11611" transform="translate(12)">
        <rect id="Rectangle_7649" data-name="Rectangle 7649" width="22" height="3" rx="1.5" transform="translate(233 1329)" fill="#727272"/>
        <rect id="Rectangle_7650" data-name="Rectangle 7650" width="22" height="3" rx="1.5" transform="translate(233 1333)" fill="#727272"/>
      </g>
    </g>
    <g id="Group_11616" data-name="Group 11616" transform="translate(16 6)">
      <path id="Path_18674" data-name="Path 18674" d="M27.751,0H2.952C1.322,0,0,1.69,0,3.774V36.983c0,2.084,1.322,3.774,2.952,3.774h24.8c1.63,0,2.952-1.69,2.952-3.774V3.774C30.7,1.69,29.381,0,27.751,0Z" transform="translate(270 1313)" fill="#f7f7f7"/>
      <path id="Path_1132-3" data-name="Path 1132" d="M4.216,0A4.216,4.216,0,1,1,0,4.216,4.216,4.216,0,0,1,4.216,0Z" transform="translate(281.5 1316.807)" fill="#fff" stroke="#727272" stroke-width="0.2"/>
      <g id="Group_11610" data-name="Group 11610" transform="translate(12)">
        <rect id="Rectangle_7651" data-name="Rectangle 7651" width="21" height="3" rx="1.5" transform="translate(263 1329)" fill="#727272"/>
        <rect id="Rectangle_7652" data-name="Rectangle 7652" width="21" height="3" rx="1.5" transform="translate(263 1333)" fill="#727272"/>
      </g>
    </g>
    <rect id="Rectangle_5860" data-name="Rectangle 5860" width="4.809" transform="translate(222.382 1327.565)" fill="#fff"/>
    <rect id="Rectangle_5862" data-name="Rectangle 5862" width="3.607" transform="translate(222.382 1332.374)" fill="#fff"/>
    <rect id="Rectangle_5866" data-name="Rectangle 5866" width="4.809" transform="translate(235.508 1332.374)" fill="#fff"/>
    <g id="Group_11617" data-name="Group 11617" transform="translate(14)">
      <path id="Shape" d="M321.855,218.767a.038.038,0,0,0-.035.035v1.422a1.033,1.033,0,0,1-.14.61.532.532,0,0,1-.452.184.412.412,0,0,1-.382-.171.991.991,0,0,1-.11-.514V218.8a.035.035,0,0,0-.01-.025.035.035,0,0,0-.025-.01h-.689a.035.035,0,0,0-.025.01.034.034,0,0,0-.01.025v1.68a2.4,2.4,0,0,0,.044.47.89.89,0,0,0,.158.36.726.726,0,0,0,.307.228,1.321,1.321,0,0,0,.5.079,1.12,1.12,0,0,0,.474-.11.858.858,0,0,0,.378-.351h.018v.351a.038.038,0,0,0,.035.035h.654a.038.038,0,0,0,.035-.035V218.8a.038.038,0,0,0-.035-.035Zm-2.612-.031a1.12,1.12,0,0,0-.255.119.955.955,0,0,0-.211.189.879.879,0,0,0-.145.237h-.009v-.457a.058.058,0,0,0-.057-.057h-.611a.058.058,0,0,0-.057.057v2.669a.058.058,0,0,0,.057.057h.65a.058.058,0,0,0,.057-.057v-1.2a1.565,1.565,0,0,1,.039-.351.741.741,0,0,1,.127-.281.619.619,0,0,1,.233-.193.819.819,0,0,1,.356-.07c.048,0,.1,0,.145.009l.062.009a.059.059,0,0,0,.066-.048v-.606a.061.061,0,0,0-.044-.057.582.582,0,0,0-.123-.013.857.857,0,0,0-.28.044Zm5,2.239a.592.592,0,0,1-.206-.2.968.968,0,0,1-.113-.281,1.685,1.685,0,0,1,0-.663.839.839,0,0,1,.11-.285.647.647,0,0,1,.206-.2.615.615,0,0,1,.316-.079.538.538,0,0,1,.307.079.661.661,0,0,1,.206.206.835.835,0,0,1,.113.29,1.664,1.664,0,0,1,0,.658.786.786,0,0,1-.11.281.655.655,0,0,1-.83.192Zm0-2.182a.806.806,0,0,0-.356.329h-.013V218.8a.034.034,0,0,0-.035-.035h-.654a.037.037,0,0,0-.035.035v3.683a.038.038,0,0,0,.035.035h.694a.034.034,0,0,0,.025-.01.034.034,0,0,0,.01-.025V221.2h.009a.957.957,0,0,0,.356.307,1.122,1.122,0,0,0,.478.11,1.137,1.137,0,0,0,.535-.119,1.11,1.11,0,0,0,.382-.316,1.393,1.393,0,0,0,.228-.457,1.729,1.729,0,0,0,.076-.54,2.231,2.231,0,0,0-.076-.566,1.293,1.293,0,0,0-.233-.474,1.148,1.148,0,0,0-.961-.452.955.955,0,0,0-.465.1Zm2.813,1.027c.009-.048.018-.1.031-.145a.627.627,0,0,1,.1-.193.546.546,0,0,1,.193-.154.659.659,0,0,1,.3-.061.532.532,0,0,1,.417.149.837.837,0,0,1,.184.4.039.039,0,0,1-.026.044h-1.168a.038.038,0,0,1-.035-.035Zm.075-1.014a1.36,1.36,0,0,0-.742.777,1.627,1.627,0,0,0-.1.579,1.606,1.606,0,0,0,.1.593,1.344,1.344,0,0,0,.281.461,1.2,1.2,0,0,0,.448.3,1.608,1.608,0,0,0,.593.105,1.451,1.451,0,0,0,.808-.215,1.242,1.242,0,0,0,.478-.667.036.036,0,0,0-.022-.044h-.61a.045.045,0,0,0-.035.022.514.514,0,0,1-.2.224.684.684,0,0,1-.4.113.691.691,0,0,1-.5-.167.728.728,0,0,1-.184-.5.038.038,0,0,1,.035-.039h1.936a.035.035,0,0,0,.035-.035,1.86,1.86,0,0,0-.057-.584,1.564,1.564,0,0,0-.245-.527,1.258,1.258,0,0,0-.434-.369,1.315,1.315,0,0,0-.619-.136,1.349,1.349,0,0,0-.572.111Zm3,1.014c.009-.048.018-.1.031-.145a.624.624,0,0,1,.1-.193.545.545,0,0,1,.193-.154.659.659,0,0,1,.3-.061.532.532,0,0,1,.417.149.837.837,0,0,1,.184.4.039.039,0,0,1-.026.044h-1.168a.038.038,0,0,1-.035-.035Zm.076-1.014a1.36,1.36,0,0,0-.742.777,1.63,1.63,0,0,0-.1.579,1.605,1.605,0,0,0,.1.593,1.344,1.344,0,0,0,.281.461,1.234,1.234,0,0,0,.448.3,1.608,1.608,0,0,0,.593.105,1.451,1.451,0,0,0,.808-.215,1.241,1.241,0,0,0,.478-.667.033.033,0,0,0,0-.027.033.033,0,0,0-.021-.017s-.009,0-.013,0h-.6a.045.045,0,0,0-.035.022.514.514,0,0,1-.2.224.67.67,0,0,1-.395.113.691.691,0,0,1-.5-.167.728.728,0,0,1-.184-.5.038.038,0,0,1,.035-.039H332.1a.035.035,0,0,0,.035-.035,1.863,1.863,0,0,0-.057-.584,1.565,1.565,0,0,0-.245-.527,1.258,1.258,0,0,0-.434-.369,1.316,1.316,0,0,0-.619-.136,1.382,1.382,0,0,0-.577.111Zm2.471-1.1a.038.038,0,0,0-.035.035v3.77a.038.038,0,0,0,.035.035h.693a.038.038,0,0,0,.035-.035v-.908a.064.064,0,0,1,.009-.026l.255-.245a.04.04,0,0,1,.053,0l0,0,.727,1.194a.045.045,0,0,0,.031.018h.838a.038.038,0,0,0,.035-.035.041.041,0,0,0,0-.022l-1.114-1.68a.034.034,0,0,1,0-.044l.966-.939a.04.04,0,0,0,0-.053.037.037,0,0,0-.026-.009h-.8a.062.062,0,0,0-.026.009l-.891.926a.034.034,0,0,1-.048,0,.038.038,0,0,1-.013-.026v-1.942a.038.038,0,0,0-.035-.035Z" transform="translate(-109.041 1089.29)" fill="#f7932e"/>
      <path id="Path" d="M163.39,288.8l1.975,1.949.009,1.2-3.174-3.139,1.194-.009" transform="translate(39.824 1021.311)" fill-rule="evenodd" fill="url(#linear-gradient-2)"/>
      <path id="Path-2" data-name="Path" d="M146.447,223.456a1.467,1.467,0,0,0-2.8-.6l1.348-.009a.622.622,0,0,1,.009,1.242v0l-2.2.013.847.838,1.369-.009A1.473,1.473,0,0,0,146.447,223.456Z" transform="translate(58.369 1085.18)" fill="#f7932e" fill-rule="evenodd"/>
      <path id="Path-3" data-name="Path" d="M207.328,272.7a1.477,1.477,0,0,1-.628.566l1.211,1.194-.009-1.194Z" transform="translate(-2.722 1036.704)" fill-rule="evenodd" fill="url(#linear-gradient-3)"/>
      <path id="Path-4" data-name="Path" d="M161.9,241.3v0Z" transform="translate(40.111 1066.726)" fill="#462a14" fill-rule="evenodd"/>
      <path id="Path-5" data-name="Path" d="M207.328,272.7a1.477,1.477,0,0,1-.628.566l1.211,1.194-.009-1.194Z" transform="translate(-2.722 1036.704)" fill-rule="evenodd" fill="url(#linear-gradient-4)"/>
      <path id="Path-6" data-name="Path" d="M144.941,270.635l-1.194.009-.847-.838,1.229,0Z" transform="translate(58.277 1039.476)" fill-rule="evenodd" fill="url(#linear-gradient-5)"/>
      <path id="Path-7" data-name="Path" d="M146.934,222.643l-3.582.022-.852-.843,3.586-.022Z" transform="translate(58.658 1085.37)" fill-rule="evenodd" fill="url(#linear-gradient-6)"/>
      <path id="Path-8" data-name="Path" d="M162.1,222.83l1.348-.009,1.308-.009a1.466,1.466,0,0,0-1.953-.7A1.447,1.447,0,0,0,162.1,222.83Z" transform="translate(39.92 1085.205)" fill-rule="evenodd" fill="url(#linear-gradient-7)"/>
      <path id="Path-9" data-name="Path" d="M191.294,258.1a.631.631,0,0,1-.588.5l-.105,0,.7.7a1.478,1.478,0,0,0,.632-.562Z" transform="translate(12.671 1050.663)" fill-rule="evenodd" fill="url(#linear-gradient-8)"/>
    </g>
    <g id="Group_11609" data-name="Group 11609" transform="translate(14 11)">
      <rect id="Rectangle_5869" data-name="Rectangle 5869" width="25.593" height="104.78" rx="3" transform="translate(305.78 1336) rotate(90)" fill="#fe9411"/>
      <path id="Path_18672" data-name="Path 18672" d="M8.4,2.605,5.289-6.249H3.126L.027,2.605H1.912l.531-1.594H5.972L6.5,2.605ZM4.214-4.238,5.428-.62H3ZM9.261-6.249V2.605h1.746V-.3h1.556a2.968,2.968,0,0,0,2.15-.86,2.844,2.844,0,0,0,.873-2.112,2.844,2.844,0,0,0-.873-2.112,2.968,2.968,0,0,0-2.15-.86Zm1.746,4.313V-4.617h1.556a1.277,1.277,0,0,1,1.29,1.341,1.284,1.284,0,0,1-1.29,1.341Zm5.717-4.313V2.605h1.746V-.3h1.556a2.968,2.968,0,0,0,2.15-.86,2.844,2.844,0,0,0,.873-2.112,2.844,2.844,0,0,0-.873-2.112,2.968,2.968,0,0,0-2.15-.86Zm1.746,4.313V-4.617h1.556a1.277,1.277,0,0,1,1.29,1.341,1.284,1.284,0,0,1-1.29,1.341Zm7.463-4.313H24.186V2.605h5.123V.936H25.932Zm8.247,0L32.256-2.556,30.333-6.249H28.36l3.023,5.4V2.605h1.733V-.848l3.036-5.4Zm11.106,5.4-3.795-5.4H40.161V2.605h1.746V-2.808L45.7,2.605H47.03V-6.249H45.284Zm10.84,2.3a4.447,4.447,0,0,0,1.341-3.276,4.4,4.4,0,0,0-1.341-3.263,4.439,4.439,0,0,0-3.263-1.341A4.439,4.439,0,0,0,49.6-5.085a4.436,4.436,0,0,0-1.328,3.263A4.485,4.485,0,0,0,49.6,1.454a4.477,4.477,0,0,0,3.263,1.328A4.477,4.477,0,0,0,56.124,1.454ZM50.824.265A2.831,2.831,0,0,1,50-1.822a2.831,2.831,0,0,1,.822-2.087,2.775,2.775,0,0,1,2.036-.822,2.775,2.775,0,0,1,2.036.822,2.831,2.831,0,0,1,.822,2.087A2.831,2.831,0,0,1,54.9.265a2.765,2.765,0,0,1-2.036.81A2.765,2.765,0,0,1,50.824.265Zm11.308,2.34,1.657-5.844,1.67,5.844h1.986l2.479-8.854H68.09L66.395.316,64.535-6.249H63.043L61.2.316,59.5-6.249H57.667l2.479,8.854Z" transform="translate(217.973 1350.426)" fill="#fff"/>
    </g>
    <g id="Group_8811" data-name="Group 8811" transform="translate(307.35 1373.422)">
      <g id="Group_8810" data-name="Group 8810">
        <g id="Group_8809" data-name="Group 8809">
          <path id="Path_16376" data-name="Path 16376" d="M-154.165,1134.294a.743.743,0,0,1,.744.744.743.743,0,0,1-.744.743.743.743,0,0,1-.744-.743A.743.743,0,0,1-154.165,1134.294Z" transform="translate(154.909 -1134.294)" fill="#bdbdbd"/>
        </g>
      </g>
    </g>
    <path id="Path_16389" data-name="Path 16389" d="M86.661,109.48a.983.983,0,0,0-.92-.827L84,108.377c-.46-.092-1.012-.552-1.012-1.011l-.276-1.747c-.092-.459-.459-.919-.827-.919a.983.983,0,0,0-.827.919l-.276,1.747c-.092.459-.552,1.011-1.011,1.011l-1.746.276c-.46.092-.92.46-.92.827a.983.983,0,0,0,.92.828l1.746.275c.46.092,1.011.553,1.011,1.012l.276,1.747c.092.46.46.919.827.919a.841.841,0,0,0,.736-.919l.276-1.931A1.41,1.41,0,0,1,83.9,110.4l1.655-.092C86.2,110.124,86.661,109.849,86.661,109.48Z" transform="translate(220.996 1199.982)" fill="#b3b3b3" opacity="0.5"/>
    <path id="Path_18675" data-name="Path 18675" d="M84.565,21.129a2.564,2.564,0,1,1,2.565-2.564A2.572,2.572,0,0,1,84.565,21.129Zm0-3.911a1.346,1.346,0,1,0,1.347,1.346A1.315,1.315,0,0,0,84.565,17.218Z" transform="translate(247.146 1358.599)" fill="#969696" opacity="0.5"/>
    <path id="Path_18677" data-name="Path 18677" d="M84.565,21.129a2.564,2.564,0,1,1,2.565-2.564A2.572,2.572,0,0,1,84.565,21.129Zm0-3.911a1.346,1.346,0,1,0,1.347,1.346A1.315,1.315,0,0,0,84.565,17.218Z" transform="translate(118.74 1287.761)" fill="#969696" opacity="0.5"/>
    <path id="Path_18676" data-name="Path 18676" d="M66.3,16.351a.936.936,0,0,0-.875-.788L63.764,15.3c-.438-.088-.963-.525-.963-.963l-.263-1.663c-.087-.438-.438-.875-.788-.875a.936.936,0,0,0-.788.875L60.7,14.338c-.087.438-.525.963-.963.963l-1.663.263c-.438.087-.875.438-.875.788a.936.936,0,0,0,.875.788l1.663.263c.438.088.963.525.963.963l.263,1.663c.088.438.438.875.788.875a.8.8,0,0,0,.7-.875l.262-1.838a1.342,1.342,0,0,1,.962-.963l1.575-.088C65.952,17.051,66.3,16.7,66.3,16.351Z" transform="translate(145.646 1351.389)" fill="#b3b3b3" opacity="0.5"/>
    <g id="Group_11608" data-name="Group 11608" transform="translate(27 8)">
      <g id="Group_8803" data-name="Group 8803" transform="translate(269.148 1381.855)">
        <g id="Group_8802" data-name="Group 8802" transform="translate(0 0)">
          <g id="Group_8801" data-name="Group 8801">
            <g id="Group_8800" data-name="Group 8800">
              <g id="Group_8799" data-name="Group 8799">
                <g id="Rectangle_5856" data-name="Rectangle 5856" transform="translate(14.343 0) rotate(90)" fill="#f5f5f5" stroke="#fff" stroke-width="1">
                  <rect width="3.229" height="14.343" stroke="none"/>
                  <rect x="-0.5" y="-0.5" width="4.229" height="15.343" fill="none"/>
                </g>
              </g>
            </g>
          </g>
        </g>
      </g>
      <g id="Group_8865" data-name="Group 8865" transform="translate(257.168 1351.954)">
        <g id="Group_8854" data-name="Group 8854">
          <g id="Group_8828" data-name="Group 8828">
            <g id="Group_8827" data-name="Group 8827">
              <g id="Group_8826" data-name="Group 8826">
                <g id="Group_8825" data-name="Group 8825">
                  <g id="Group_8824" data-name="Group 8824">
                    <g id="Path_16378" data-name="Path 16378" transform="translate(211.746 -1061.102)" fill="#ea9b61">
                      <path d="M -185.8315582275391 1090.523193359375 L -186.3951416015625 1090.523193359375 L -198.792724609375 1090.523193359375 L -199.0277709960938 1090.523193359375 L -199.2382202148438 1090.41845703125 L -202.1467590332031 1088.97119140625 L -202.1765899658203 1088.956420898438 L -202.2053680419922 1088.939575195312 L -211.2341766357422 1083.669555664062 C -212.5056762695312 1082.98046875 -213.0794982910156 1081.433349609375 -212.5406341552734 1080.137084960938 C -212.1069488525391 1079.096923828125 -211.1011962890625 1078.42529296875 -209.9779357910156 1078.42529296875 C -209.5315551757812 1078.42529296875 -209.0865173339844 1078.535522460938 -208.6897583007812 1078.744140625 L -203.7731018066406 1081.17041015625 L -203.7701721191406 1081.171875 L -203.7672576904297 1081.17333984375 C -203.4849548339844 1081.31494140625 -203.1688537597656 1081.389770507812 -202.8531341552734 1081.389770507812 C -202.7006530761719 1081.389770507812 -202.5479888916016 1081.37255859375 -202.3993682861328 1081.338623046875 C -202.2161407470703 1081.297119140625 -202.0168151855469 1081.047119140625 -202.0168151855469 1080.860595703125 L -202.0168151855469 1074.67822265625 L -202.0168151855469 1073.7763671875 L -202.0168151855469 1062.87353515625 C -202.0168151855469 1061.34521484375 -200.7734222412109 1060.101684570312 -199.2450866699219 1060.101684570312 C -199.1556701660156 1060.101684570312 -199.06494140625 1060.106079101562 -198.9754028320312 1060.114624023438 C -197.5724182128906 1060.247314453125 -196.4726257324219 1061.492431640625 -196.4726257324219 1062.94921875 L -196.4726257324219 1067.619506835938 C -196.1312713623047 1067.408813476562 -195.7427062988281 1067.27197265625 -195.3275604248047 1067.232299804688 C -195.2382507324219 1067.223754882812 -195.1475524902344 1067.219482421875 -195.0581512451172 1067.219482421875 C -194.1695404052734 1067.219482421875 -193.3773040771484 1067.6396484375 -192.8697204589844 1068.2919921875 C -192.3648529052734 1067.766967773438 -191.6556243896484 1067.439697265625 -190.871337890625 1067.439697265625 C -190.7825317382812 1067.439697265625 -190.6923980712891 1067.444091796875 -190.6035003662109 1067.452514648438 C -189.3424987792969 1067.573364257812 -188.3274383544922 1068.590209960938 -188.1335144042969 1069.850341796875 C -187.7120819091797 1069.59130859375 -187.2164611816406 1069.441772460938 -186.6865692138672 1069.441772460938 C -186.5969543457031 1069.441772460938 -186.5060272216797 1069.446166992188 -186.4163055419922 1069.454711914062 C -185.0134582519531 1069.587768554688 -183.9137878417969 1070.833129882812 -183.9137878417969 1072.289794921875 L -183.9137878417969 1073.7763671875 L -183.9137878417969 1074.67822265625 L -183.9137878417969 1084.2177734375 C -183.9137878417969 1086.270385742188 -184.4760131835938 1088.284057617188 -185.5396881103516 1090.041015625 L -185.8315582275391 1090.523193359375 Z" stroke="none"/>
                      <path d="M -199.2450866699219 1061.101684570312 C -200.2237091064453 1061.101684570312 -201.0168151855469 1061.895141601562 -201.0168151855469 1062.87353515625 L -201.0168151855469 1073.7763671875 L -201.0168151855469 1074.67822265625 L -201.0168151855469 1080.860595703125 C -201.0168151855469 1081.515380859375 -201.5387878417969 1082.1689453125 -202.1766967773438 1082.3134765625 C -202.3999938964844 1082.364501953125 -202.626953125 1082.389770507812 -202.8531036376953 1082.389770507812 C -203.3230285644531 1082.389770507812 -203.7898101806641 1082.28076171875 -204.2156372070312 1082.067138671875 L -209.1451110839844 1079.634521484375 C -209.4108276367188 1079.49267578125 -209.6964874267578 1079.42529296875 -209.9779357910156 1079.42529296875 C -210.6650390625 1079.42529296875 -211.3275604248047 1079.826171875 -211.6172485351562 1080.52099609375 C -211.9730834960938 1081.376953125 -211.5621948242188 1082.3623046875 -210.7451782226562 1082.797119140625 L -201.7012634277344 1088.075927734375 L -198.792724609375 1089.523193359375 L -186.3951416015625 1089.523193359375 C -185.4261779785156 1087.922607421875 -184.9137878417969 1086.088134765625 -184.9137878417969 1084.2177734375 L -184.9137878417969 1074.67822265625 L -184.9137878417969 1073.7763671875 L -184.9137878417969 1072.289794921875 C -184.9137878417969 1071.364501953125 -185.5902709960938 1070.53759765625 -186.51171875 1070.4501953125 C -186.570556640625 1070.444580078125 -186.6288909912109 1070.441772460938 -186.6865692138672 1070.441772460938 C -187.6650390625 1070.441772460938 -188.4580688476562 1071.2353515625 -188.4580688476562 1072.2138671875 L -188.4580688476562 1073.7763671875 L -189.1000671386719 1073.7763671875 L -189.1000671386719 1070.2880859375 C -189.1000671386719 1069.36279296875 -189.7764587402344 1068.536376953125 -190.697998046875 1068.447998046875 C -190.7563171386719 1068.442504882812 -190.8141326904297 1068.439697265625 -190.8713226318359 1068.439697265625 C -191.8505096435547 1068.439697265625 -192.644287109375 1069.233642578125 -192.644287109375 1070.212158203125 L -192.644287109375 1073.003173828125 L -193.2864074707031 1073.003173828125 L -193.2864074707031 1069.9912109375 C -193.2864074707031 1069.013305664062 -194.0795288085938 1068.219482421875 -195.0581665039062 1068.219482421875 C -195.1157073974609 1068.219482421875 -195.1738586425781 1068.22216796875 -195.2325744628906 1068.227783203125 C -196.1536254882812 1068.315673828125 -196.8305969238281 1069.142333984375 -196.8305969238281 1070.067626953125 L -196.8305969238281 1073.7763671875 L -197.4726257324219 1073.7763671875 L -197.4726257324219 1062.94921875 C -197.4726257324219 1062.024169921875 -198.1489868164062 1061.197265625 -199.0705871582031 1061.110107421875 C -199.1293029785156 1061.1044921875 -199.1875305175781 1061.101684570312 -199.2450866699219 1061.101684570312 M -199.2450866699219 1059.101684570312 C -199.1240844726562 1059.101684570312 -199.0013732910156 1059.107543945312 -198.8803405761719 1059.119140625 C -197.9211730957031 1059.209838867188 -197.0411987304688 1059.671020507812 -196.4044342041016 1060.41748046875 C -195.8035430908203 1061.121826171875 -195.4726257324219 1062.02099609375 -195.4726257324219 1062.94921875 L -195.4726257324219 1066.241943359375 C -195.4559783935547 1066.240112304688 -195.4392547607422 1066.238403320312 -195.4225616455078 1066.23681640625 C -195.3017883300781 1066.225341796875 -195.1790924072266 1066.219482421875 -195.0581512451172 1066.219482421875 C -194.2123565673828 1066.219482421875 -193.4306030273438 1066.499389648438 -192.8007965087891 1066.971313476562 C -192.2359313964844 1066.633911132812 -191.5758056640625 1066.439697265625 -190.8713226318359 1066.439697265625 C -190.7509918212891 1066.439697265625 -190.6290588378906 1066.445556640625 -190.5088958740234 1066.456909179688 C -189.546875 1066.549194335938 -188.6678009033203 1067.010620117188 -188.0317687988281 1067.75634765625 C -187.8280181884766 1067.995239257812 -187.6553039550781 1068.256469726562 -187.5160217285156 1068.53369140625 C -187.2490844726562 1068.473510742188 -186.9713897705078 1068.441772460938 -186.6865692138672 1068.441772460938 C -186.5652313232422 1068.441772460938 -186.4421997070312 1068.44775390625 -186.3208923339844 1068.459350585938 C -185.3619689941406 1068.55029296875 -184.482177734375 1069.011474609375 -183.8455505371094 1069.7578125 C -183.2446899414062 1070.462280273438 -182.9137878417969 1071.361450195312 -182.9137878417969 1072.289794921875 L -182.9137878417969 1073.7763671875 L -182.9137878417969 1074.67822265625 L -182.9137878417969 1084.2177734375 C -182.9137878417969 1086.453002929688 -183.5260009765625 1088.645751953125 -184.6842346191406 1090.558959960938 L -185.2679748535156 1091.523193359375 L -186.3951416015625 1091.523193359375 L -198.792724609375 1091.523193359375 L -199.2628326416016 1091.523193359375 L -199.6837005615234 1091.313720703125 L -202.5922393798828 1089.866455078125 L -202.6519012451172 1089.836791992188 L -202.70947265625 1089.80322265625 L -211.7256317138672 1084.540649414062 C -212.5259704589844 1084.102416992188 -213.1487579345703 1083.396850585938 -213.4822082519531 1082.549072265625 C -213.8409118652344 1081.63720703125 -213.8344573974609 1080.644287109375 -213.4640197753906 1079.753295898438 C -212.8741455078125 1078.33837890625 -211.5060882568359 1077.42529296875 -209.9779510498047 1077.42529296875 C -209.3745880126953 1077.42529296875 -208.7734375 1077.572875976562 -208.2367706298828 1077.8525390625 L -203.33056640625 1080.273681640625 L -203.3247222900391 1080.276489257812 L -203.3188934326172 1080.279418945312 C -203.2240295410156 1080.327026367188 -203.1216583251953 1080.35986328125 -203.0168151855469 1080.376586914062 L -203.0168151855469 1074.67822265625 L -203.0168151855469 1073.7763671875 L -203.0168151855469 1062.87353515625 C -203.0168151855469 1060.793823242188 -201.3248291015625 1059.101684570312 -199.2450866699219 1059.101684570312 Z" stroke="none" fill="#fff"/>
                    </g>
                  </g>
                </g>
              </g>
            </g>
          </g>
        </g>
        <g id="Group_8859" data-name="Group 8859" transform="translate(11.541 0.853)">
          <g id="Group_8858" data-name="Group 8858" opacity="0.549">
            <g id="Group_8857" data-name="Group 8857">
              <g id="Group_8856" data-name="Group 8856">
                <g id="Group_8855" data-name="Group 8855">
                  <path id="Path_16384" data-name="Path 16384" d="M-183.286,1063.133a.958.958,0,0,0-.958.958v.69a.958.958,0,0,0,.958.958.958.958,0,0,0,.958-.958v-.69A.958.958,0,0,0-183.286,1063.133Z" transform="translate(184.244 -1063.133)" fill="#fff"/>
                </g>
              </g>
            </g>
          </g>
        </g>
        <g id="Group_8864" data-name="Group 8864" transform="translate(0.714 20.387)" opacity="0.549">
          <g id="Group_8863" data-name="Group 8863">
            <g id="Group_8862" data-name="Group 8862">
              <g id="Group_8861" data-name="Group 8861">
                <g id="Group_8860" data-name="Group 8860">
                  <path id="Path_16385" data-name="Path 16385" d="M-208.657,1109.785l.618.309a.957.957,0,0,1,.425,1.287.959.959,0,0,1-.6.495l-1.542-.88a1.872,1.872,0,0,1-.27-.178.969.969,0,0,1,.089-.6A.955.955,0,0,1-208.657,1109.785Z" transform="translate(210.044 -1109.684)" fill="#fff"/>
                </g>
              </g>
            </g>
          </g>
        </g>
      </g>
    </g>
  </g>
</svg>
