<svg xmlns="http://www.w3.org/2000/svg" width="140" height="100" viewBox="0 0 140 100">
  <g id="Easy_Payment" data-name="Easy Payment" transform="translate(-195 -1541)">
    <rect id="Rectangle_5687" data-name="Rectangle 5687" width="140" height="100" rx="7" transform="translate(195 1541)" fill="#f4f4f4"/>
    <path id="Path_16386" data-name="Path 16386" d="M85.532,23.123a3.562,3.562,0,1,1,3.532-3.562A3.557,3.557,0,0,1,85.532,23.123Zm0-5.432a1.87,1.87,0,1,0,1.855,1.87A1.819,1.819,0,0,0,85.532,17.692Z" transform="translate(220.628 1545.95)" fill="#969696" opacity="0.5"/>
    <path id="Path_16387" data-name="Path 16387" d="M37.842,25.733a2.866,2.866,0,1,1,2.843-2.866A2.96,2.96,0,0,1,37.842,25.733Zm0-4.371a1.5,1.5,0,1,0,1.492,1.5A1.557,1.557,0,0,0,37.842,21.361Z" transform="translate(183.685 1532)" fill="#969696" opacity="0.5"/>
    <path id="Path_16389" data-name="Path 16389" d="M86.828,109.6a1,1,0,0,0-.936-.849l-1.777-.283c-.468-.094-1.029-.566-1.029-1.037l-.281-1.793c-.093-.471-.467-.943-.842-.943s-.748.377-.841.943l-.281,1.793c-.094.471-.561,1.037-1.029,1.037l-1.777.283c-.468.095-.936.472-.936.849a1,1,0,0,0,.936.849l1.777.282c.468.094,1.029.567,1.029,1.038l.281,1.792c.093.472.468.943.841.943a.861.861,0,0,0,.748-.943l.281-1.981a1.441,1.441,0,0,1,1.029-1.037l1.684-.094C86.36,110.264,86.828,109.982,86.828,109.6Z" transform="translate(237.165 1502.166)" fill="#969696" opacity="0.5"/>
    <path id="Path_16390" data-name="Path 16390" d="M68.57,17.533a1.173,1.173,0,0,0-1.093-.992L65.4,16.21c-.547-.11-1.2-.661-1.2-1.213L63.869,12.9c-.109-.551-.547-1.1-.984-1.1s-.875.441-.984,1.1L61.573,15c-.109.551-.656,1.213-1.2,1.213l-2.077.331c-.547.11-1.093.551-1.093.992a1.173,1.173,0,0,0,1.093.992l2.077.331c.547.11,1.2.661,1.2,1.213l.328,2.095c.11.551.547,1.1.984,1.1a1.006,1.006,0,0,0,.875-1.1l.328-2.315a1.683,1.683,0,0,1,1.2-1.213l1.968-.11C68.133,18.415,68.57,17.974,68.57,17.533Z" transform="translate(155.8 1586.858)" fill="#969696" opacity="0.5"/>
    <g id="Group_7177" data-name="Group 7177" transform="translate(234.896 1554.894)">
      <path id="Path_16445" data-name="Path 16445" d="M3.744,0h28.7a3.828,3.828,0,0,1,3.744,3.907V70.318a3.828,3.828,0,0,1-3.744,3.907H3.744A3.828,3.828,0,0,1,0,70.318V3.907A3.828,3.828,0,0,1,3.744,0Z" transform="translate(13.145 0)" fill="#969696"/>
      <rect id="Rectangle_5470" data-name="Rectangle 5470" width="33.481" height="69.442" rx="2" transform="translate(13.88 1.367)" fill="#fff"/>
      <g id="Group_7156" data-name="Group 7156" transform="translate(26.38 5.534)" opacity="0.2">
        <rect id="Rectangle_5551" data-name="Rectangle 5551" width="8.333" height="1.389" rx="0.694" transform="translate(0 0)" fill="#969696"/>
        <rect id="Rectangle_5552" data-name="Rectangle 5552" width="1.389" height="1.389" rx="0.694" transform="translate(9.722 0)" fill="#969696"/>
      </g>
      <g id="Group_10313" data-name="Group 10313" transform="translate(0 5.534)">
        <g id="Group_10241" data-name="Group 10241" transform="translate(0 0)">
          <path id="Path_6713" data-name="Path 6713" d="M6862.407,2561.574c-2.767,0-5.136-2.361-7.662-3.032s-5.863.135-8.206-1.193-3.287-4.578-5.108-6.465-5.131-2.767-6.479-5.1-.494-5.531-1.185-8.21-3.05-4.928-3.05-7.663,2.37-5.123,3.05-7.648-.133-5.874,1.185-8.207,4.592-3.283,6.479-5.1,2.767-5.121,5.108-6.468,5.523-.491,8.206-1.2,4.93-3.031,7.662-3.031,5.139,2.362,7.662,3.031,5.854-.132,8.2,1.2,3.284,4.58,5.1,6.468,5.144,2.761,6.571,5.1.491,5.525,1.181,8.207,3.054,4.922,3.054,7.648-2.369,5.133-3.054,7.663.126,5.86-1.181,8.21-4.6,3.28-6.571,5.1-2.757,5.118-5.1,6.465-5.521.491-8.2,1.193S6865.142,2561.574,6862.407,2561.574Z" transform="translate(-6831.113 -2498.251)" fill="#fe9411" stroke="#fff" stroke-width="2"/>
          <g id="Group_9855" data-name="Group 9855" transform="translate(23.855 12.765)">
            <g id="Group_9774" data-name="Group 9774" transform="translate(0 0)">
              <path id="Path_6714" data-name="Path 6714" d="M6866.9,2522.349l-1.552-1.527a1.124,1.124,0,0,0-1.544,0l-7.463,7.338-3.353-3.292a1.053,1.053,0,0,0-1.542,0l-1.558,1.506a1.086,1.086,0,0,0-.061,1.458l.061.068,4.15,4.042,1.543,1.523a1.13,1.13,0,0,0,1.555,0l1.542-1.523,8.246-8.065a1.076,1.076,0,0,0,.066-1.454h-.066Z" transform="translate(-6851.331 -2519.515)" fill="#fff"/>
            </g>
          </g>
        </g>
      </g>
    </g>
    <path id="Path_18501" data-name="Path 18501" d="M-16.58-5.6V1h1.3V-1.167h1.16a2.213,2.213,0,0,0,1.6-.641,2.12,2.12,0,0,0,.651-1.575,2.12,2.12,0,0,0-.651-1.575,2.213,2.213,0,0,0-1.6-.641Zm1.3,3.216v-2h1.16a.952.952,0,0,1,.962,1,.957.957,0,0,1-.962,1ZM-6.027,1l-2.32-6.6H-9.959L-12.27,1h1.405l.4-1.188h2.631L-7.441,1ZM-9.148-4.1l.905,2.7h-1.811ZM-2.49-5.6-3.923-2.846-5.357-5.6H-6.828l2.254,4.027V1h1.292V-1.573L-1.019-5.6Zm7.224,0L2.848-2.478.952-5.6H-.387V1h1.3V-3.271L2.773-.215h.151L4.781-3.28V1H6.074V-5.6ZM8.6-1.724h2.5V-2.95H8.6V-4.355h2.735V-5.6H7.3V1h4.084V-.243H8.6Zm7.517.151L13.288-5.6H12.3V1h1.3V-3.035L16.429,1h.99V-5.6h-1.3ZM18.155-5.6v1.245h1.773V1h1.3V-4.355h1.782V-5.6ZM-9.191,3.831v6.6h2.622A3,3,0,0,0-4.305,9.48a3.237,3.237,0,0,0,.915-2.348,3.237,3.237,0,0,0-.915-2.348,3,3,0,0,0-2.263-.953Zm1.3,5.357V5.076h1.32a1.808,1.808,0,0,1,1.4.575,2.056,2.056,0,0,1,.538,1.481,2.1,2.1,0,0,1-.538,1.49,1.833,1.833,0,0,1-1.4.566Zm10.978.387a3.316,3.316,0,0,0,1-2.443,3.28,3.28,0,0,0-1-2.433,3.31,3.31,0,0,0-2.433-1,3.31,3.31,0,0,0-2.433,1,3.308,3.308,0,0,0-.99,2.433,3.344,3.344,0,0,0,.99,2.443,3.338,3.338,0,0,0,2.433.99A3.338,3.338,0,0,0,3.089,9.575ZM-.863,8.688a2.111,2.111,0,0,1-.613-1.556A2.111,2.111,0,0,1-.863,5.576,2.069,2.069,0,0,1,.655,4.963a2.069,2.069,0,0,1,1.518.613,2.111,2.111,0,0,1,.613,1.556,2.111,2.111,0,0,1-.613,1.556,2.062,2.062,0,0,1-1.518.6A2.062,2.062,0,0,1-.863,8.688Zm9.686-.83L5.993,3.831H5v6.6H6.3V6.4l2.829,4.037h.99v-6.6h-1.3Zm3.829-.151h2.5V6.481h-2.5V5.076h2.735V3.831H11.35v6.6h4.084V9.188H12.652Z" transform="translate(263.58 1599.6)" fill="#fff"/>
  </g>
</svg>
