<svg xmlns="http://www.w3.org/2000/svg" id="prefix___30_min" width="26.282" height="28" data-name="30 min" viewBox="0 0 26.282 28">
    <path id="prefix__Path_14833" d="M240.67 94.964V93.12h2.7a.8.8 0 1 0 0-1.6h-7.052a.8.8 0 1 0 0 1.6h2.7v1.844a12.584 12.584 0 1 0 1.653 0zm-.825 22.7a10.569 10.569 0 1 1 10.91-10.565 10.68 10.68 0 0 1-10.91 10.565zm11.548-23.94a.848.848 0 0 0-1.06-.09l-2.755 1.868a.786.786 0 0 0-.208 1.108.753.753 0 0 0 .1.114l2.755 2.669a.835.835 0 0 0 .584.235.6.6 0 0 0 .072 0 .828.828 0 0 0 .605-.338l1.929-2.669a.782.782 0 0 0-.091-1.024zm-.7 3.862l-1.362-1.319 1.38-.935.948.918zm-10.577 1.561v5.336c1.763.373 2.645 1.228 2.7 2.562a2.611 2.611 0 0 1-.551 1.654 2.8 2.8 0 0 1-2.149 1.067v5.336a8.111 8.111 0 0 0 7.053-4 7.452 7.452 0 0 0-.441-8.645 8.03 8.03 0 0 0-6.612-3.308zm1.818 8.005a1.819 1.819 0 1 0-1.837 1.761h.019a1.807 1.807 0 0 0 1.818-1.76z" data-name="Path 14833" transform="translate(-227.279 -91.519)" style="fill:#ff6200;fill-rule:evenodd"/>
</svg>
