<svg xmlns="http://www.w3.org/2000/svg" width="28" height="26.107" viewBox="0 0 28 26.107">
    <path id="prefix__banks" d="M614.16 98.766h-26.006v1.45h26.006zM601.133 90.6l-13.975 5.6v1.6h28v-1.161zm0 6.236a2.445 2.445 0 1 1 .049 0zm0-3.867a1.451 1.451 0 1 0 1.5 1.45 1.466 1.466 0 0 0-1.5-1.45zm-7.986 8.218h-3.993v.967h3.993zm-2.994 1.984v8.7h2v-8.7h-2zm-1 10.635h3.993v-.968h-3.993v.968zm13.975-12.617h-3.993v.965h3.993v-.965zm9.982 0h-3.993v.965h3.993v-.965zm-2.6 13.584a7.159 7.159 0 0 1-7.187 0h-15.717v1.45a.462.462 0 0 0 .442.484.417.417 0 0 0 .057 0h26a.465.465 0 0 0 .5-.428.55.55 0 0 0 0-.056v-1.45zm-11.38-.967h2.894a7.91 7.91 0 0 1-.849-.967h-2.046v.967zm13.975-.967h-.449a8.02 8.02 0 0 1-.848.967h1.3v-.967zm-1-8.411v-1.259h-1.6a6.717 6.717 0 0 1 1.6 1.257zm-11.978 7.443h.5a10.87 10.87 0 0 1-.5-1.354zm2-8.7h-2v4.254a6.606 6.606 0 0 1 2-3.335zm4.792 11.6a5.8 5.8 0 1 0-5.989-5.8 5.863 5.863 0 0 0 5.993 5.798zm1.5-9.233l1.1 1.063h-1.2a1.986 1.986 0 0 1 .2.774 2.147 2.147 0 0 1-.249.967l.747.679v1.5l-1.548-1.5a4.2 4.2 0 0 1-.747.193h-.25l2.546 2.417v1.5l-4.092-3.916-1.1-1.063h2.845a.71.71 0 0 0 .75-.667.634.634 0 0 0 0-.106.79.79 0 0 0-.7-.774h-1.847l-1.1-1.063h4.643z" transform="translate(-587.158 -90.597)" style="fill:#ff6200;fill-rule:evenodd"/>
</svg>
