<svg xmlns="http://www.w3.org/2000/svg" width="27.971" height="28" viewBox="0 0 27.971 28">
    <path id="prefix__flexible" d="M529.215 113.182a1.064 1.064 0 0 0-1.09 1.038v.052a2.194 2.194 0 0 1-2.18 2.181h-19.253a2.193 2.193 0 0 1-2.18-2.181V97.187a2.193 2.193 0 0 1 2.18-2.181h1.353V96.1a1.09 1.09 0 1 0 2.18 0v-1.146h4.93v1.09a1.09 1.09 0 1 0 2.179 0v-1.09h4.981v1.09a1.09 1.09 0 1 0 2.179 0v-1.09h1.4a2.194 2.194 0 0 1 2.179 2.181v11.633a1.09 1.09 0 1 0 2.18 0V97.187a4.351 4.351 0 0 0-4.34-4.362h-1.421v-1.143a1.089 1.089 0 1 0-2.179 0v1.091h-4.982v-1.091a1.089 1.089 0 1 0-2.179 0v1.091h-4.93v-1.091a1.09 1.09 0 1 0-2.18 0v1.091H506.7a4.351 4.351 0 0 0-4.359 4.343v17.1a4.351 4.351 0 0 0 4.339 4.363h19.27a4.35 4.35 0 0 0 4.358-4.343v-.02a1.054 1.054 0 0 0-1.069-1.039h-.025zm-11.365-12.046a.876.876 0 0 0-.868-.883h-.014a.986.986 0 0 0-.777.416l-3.684 5.4a4.188 4.188 0 0 0-.726 2.389 3.832 3.832 0 0 0 1.142 2.908 4.626 4.626 0 0 0 5.967 0 4.276 4.276 0 0 0 0-5.816 3.947 3.947 0 0 0-2.958-1.142h-.208l1.972-2.8a.837.837 0 0 0 .154-.472zm-1.87 5.036a2.217 2.217 0 0 1 2.18 2.252v.241a2.1 2.1 0 0 1-2.224 1.974h-.059a2.234 2.234 0 0 1 .01-4.468z" transform="translate(-502.338 -90.584)" style="fill:#ff6200;fill-rule:evenodd"/>
</svg>
