<svg xmlns="http://www.w3.org/2000/svg" width="24.803" height="28" viewBox="0 0 24.803 28">
    <path id="prefix__insurance" d="M160.1 91.338a12.356 12.356 0 0 0-12.4 12.28.814.814 0 0 0 .814.808h10.772v10.664a4.3 4.3 0 0 0 8.6 0 .816.816 0 0 0-1.632 0 2.666 2.666 0 1 1-5.332 0v-10.664h10.772a.814.814 0 0 0 .814-.808 12.357 12.357 0 0 0-12.408-12.28zm-10.745 11.472a10.78 10.78 0 0 1 21.481 0zm6.282 7.756h-.655a1.992 1.992 0 0 0-.272-.593h.925a.367.367 0 0 0 .38-.354v-.023a.443.443 0 0 0-.452-.433h-3.737a.478.478 0 0 0-.49.431.443.443 0 0 0 .451.434h1.072a1.17 1.17 0 0 1 1.034.593h-2.067a.435.435 0 0 0-.115.861.419.419 0 0 0 .115 0h2.067a.69.69 0 0 1-.218.323 1.08 1.08 0 0 1-.761.323h-1.034a.433.433 0 0 0-.436.269.407.407 0 0 0 .109.485l2.666 2.424a.4.4 0 0 0 .326.108.388.388 0 0 0 .326-.162.488.488 0 0 0 0-.646l-1.8-1.616a2.218 2.218 0 0 0 1.36-.593 1.741 1.741 0 0 0 .544-.97h.653a.434.434 0 1 0 .13-.859.446.446 0 0 0-.13 0zm13.328-3.178h-.653a2.011 2.011 0 0 0-.272-.592h.925a.367.367 0 0 0 .38-.354v-.023a.443.443 0 0 0-.452-.433h-3.738a.478.478 0 0 0-.489.431.443.443 0 0 0 .451.434h1.072a1.171 1.171 0 0 1 1.034.592h-2.067a.478.478 0 0 0-.489.431.443.443 0 0 0 .451.434h2.105a.686.686 0 0 1-.218.323 1.08 1.08 0 0 1-.761.323h-1.034a.431.431 0 0 0-.435.269.407.407 0 0 0 .109.485l2.665 2.424a.4.4 0 0 0 .326.108.389.389 0 0 0 .327-.162.49.49 0 0 0 0-.646l-1.8-1.617a2.218 2.218 0 0 0 1.36-.593 1.745 1.745 0 0 0 .544-.97h.653a.477.477 0 0 0 .49-.431.443.443 0 0 0-.453-.433h-.037z" transform="translate(-147.692 -91.338)" style="fill:#ff6200;fill-rule:evenodd"/>
</svg>
