<svg xmlns="http://www.w3.org/2000/svg" id="prefix__non_jumping" width="28" height="28.029" data-name="non jumping" viewBox="0 0 28 28.029">
    <path id="prefix__Path_14832" d="M27.452 103.883a2.455 2.455 0 0 0-.739-2.84l-1.722-1.4a.506.506 0 0 1-.088-.179l-.378-2.214a2.464 2.464 0 0 0-2.059-2.072l-2.266-.387-.053-.007a.629.629 0 0 1-.081-.067l-1.4-1.725a2.446 2.446 0 0 0-2.82-.753l-2.153.829a.508.508 0 0 0-.05.032c-.024-.012-.048-.023-.073-.032l-2.132-.82a2.452 2.452 0 0 0-2.84.74L7.2 94.709a.515.515 0 0 1-.177.088l-2.212.378a2.464 2.464 0 0 0-2.071 2.061L2.357 99.5c0 .017-.005.035-.007.053a.741.741 0 0 1-.067.081l-1.724 1.4a2.448 2.448 0 0 0-.754 2.821l.826 2.154a.365.365 0 0 0 .032.05c-.012.024-.023.048-.032.073l-.817 2.133a2.454 2.454 0 0 0 .739 2.841l1.722 1.4a.551.551 0 0 1 .089.179l.378 2.214a2.465 2.465 0 0 0 2.058 2.078l2.265.386.053.008a.865.865 0 0 1 .081.067l1.4 1.725a2.474 2.474 0 0 0 1.927.93 2.325 2.325 0 0 0 .894-.179l2.151-.828h.036l2.166.82a2.448 2.448 0 0 0 2.838-.739l1.4-1.724a.525.525 0 0 1 .177-.088l2.213-.378a2.464 2.464 0 0 0 2.071-2.06l.387-2.267c0-.018.005-.035.007-.053a.672.672 0 0 1 .067-.081l1.725-1.4a2.45 2.45 0 0 0 .752-2.823l-.81-2.093a.319.319 0 0 1 .033-.179zM25 106.638a.673.673 0 0 0 .031.1l.836 2.175a.8.8 0 0 1-.254.916l-1.766 1.436a.86.86 0 0 0-.063.06 1.745 1.745 0 0 0-.571 1.106l-.38 2.227a.814.814 0 0 1-.7.69l-2.263.387a.543.543 0 0 0-.059.013 2.123 2.123 0 0 0-.993.55.733.733 0 0 0-.059.063l-1.439 1.773a.806.806 0 0 1-.933.239l-2.125-.818a1.842 1.842 0 0 0-1.312 0l-2.146.826a.8.8 0 0 1-.916-.255l-1.437-1.768c-.019-.022-.038-.044-.059-.064a1.753 1.753 0 0 0-1.1-.571l-2.225-.38a.814.814 0 0 1-.688-.7l-.386-2.267a.526.526 0 0 0-.013-.06 2.134 2.134 0 0 0-.549-.992c-.02-.021-.041-.041-.063-.06l-1.771-1.44a.808.808 0 0 1-.241-.934l.814-2.119a1.644 1.644 0 0 0 0-1.372l-.826-2.148a.8.8 0 0 1 .254-.916l1.767-1.436a.747.747 0 0 0 .063-.06A1.746 1.746 0 0 0 4 99.729l.38-2.226a.814.814 0 0 1 .7-.69l2.264-.387a.505.505 0 0 0 .059-.013 2.125 2.125 0 0 0 .992-.55.747.747 0 0 0 .055-.063l1.44-1.773a.809.809 0 0 1 .933-.242l2.125.817a1.635 1.635 0 0 0 1.373 0l2.144-.825a.8.8 0 0 1 .915.255l1.435 1.768a.654.654 0 0 0 .059.063 1.739 1.739 0 0 0 1.106.572l2.225.38a.815.815 0 0 1 .686.7l.387 2.267a.589.589 0 0 0 .013.06 2.115 2.115 0 0 0 .55.993.6.6 0 0 0 .063.06l1.771 1.44a.808.808 0 0 1 .241.934l-.826 2.145a1.935 1.935 0 0 0-.09 1.224zm-14.211-2.853a2.6 2.6 0 0 0 2.6-2.6 2.569 2.569 0 0 0-2.539-2.6h-.058a2.6 2.6 0 0 0-2.6 2.6 2.568 2.568 0 0 0 2.539 2.6zm0-3.536a.918.918 0 0 1 .938.9v.041a.95.95 0 0 1-.938.939.918.918 0 0 1-.938-.9v-.042a.95.95 0 0 1 .94-.938zm5.52 8.234a2.6 2.6 0 1 0 2.593 2.572v-.021a2.65 2.65 0 0 0-2.593-2.553zm0 3.536a.939.939 0 0 1 0-1.879.984.984 0 0 1 .938.939.95.95 0 0 1-.938.938zm3.034-13.592a.828.828 0 0 0-1.159.169L8.139 112.072a.829.829 0 0 0 .159 1.153l.009.007a.827.827 0 0 0 1.159-.169l10.047-13.478a.828.828 0 0 0-.159-1.152l-.009-.007z" data-name="Path 14832" transform="translate(.367 -92.065)" style="fill:#ff6200;fill-rule:evenodd"/>
</svg>
