<svg xmlns="http://www.w3.org/2000/svg" width="154.357" height="62.032" viewBox="0 0 154.357 62.032">
    <defs>
        <linearGradient id="prefix__linear-gradient" x1=".5" x2=".5" y2="1" gradientUnits="objectBoundingBox">
            <stop offset="0" stop-color="#fe9411"/>
            <stop offset="1" stop-color="#ff6300"/>
        </linearGradient>
        <clipPath id="prefix__clip-path">
            <path id="prefix__Path_13116" d="M232.046 17.876a.122.122 0 0 0-.13.13v5.421a4.065 4.065 0 0 1-.521 2.341 1.974 1.974 0 0 1-1.734.694 1.656 1.656 0 0 1-1.475-.651 3.869 3.869 0 0 1-.391-1.947v-5.858a.122.122 0 0 0-.13-.13h-2.645a.122.122 0 0 0-.13.13v6.379a7.5 7.5 0 0 0 .174 1.778 3.66 3.66 0 0 0 .608 1.387 2.962 2.962 0 0 0 1.171.868 4.892 4.892 0 0 0 1.908.3 4.591 4.591 0 0 0 1.825-.391 3.062 3.062 0 0 0 1.431-1.338h.044v1.341a.122.122 0 0 0 .13.13h2.519a.114.114 0 0 0 .13-.13V18.006a.114.114 0 0 0-.13-.13zm-9.93-.13a3.93 3.93 0 0 0-.954.477 3.164 3.164 0 0 0-.78.737 3.223 3.223 0 0 0-.563.91h-.044v-1.733a.2.2 0 0 0-.217-.217h-2.341a.2.2 0 0 0-.217.217v10.142a.2.2 0 0 0 .217.217h2.471a.2.2 0 0 0 .217-.217V23.73a6.731 6.731 0 0 1 .13-1.338 3.065 3.065 0 0 1 .477-1.084 2.213 2.213 0 0 1 .91-.737 3.233 3.233 0 0 1 1.338-.26 2.667 2.667 0 0 1 .563.044.55.55 0 0 1 .26.044.243.243 0 0 0 .26-.217v-2.3a.288.288 0 0 0-.174-.217 1.779 1.779 0 0 0-.477-.044 4.369 4.369 0 0 0-1.084.13m19.036 8.543a1.837 1.837 0 0 1-.78-.737 2.713 2.713 0 0 1-.433-1.084 6.142 6.142 0 0 1 0-2.515 3 3 0 0 1 .433-1.084 3.333 3.333 0 0 1 .78-.78 2.106 2.106 0 0 1 1.217-.3 1.962 1.962 0 0 1 1.17.3 3.333 3.333 0 0 1 .78.78 3 3 0 0 1 .433 1.084 5.89 5.89 0 0 1 .13 1.257 6.2 6.2 0 0 1-.13 1.257 3 3 0 0 1-.433 1.084 2.3 2.3 0 0 1-1.994 1.04 2.148 2.148 0 0 1-1.171-.3m0-8.282a3.122 3.122 0 0 0-1.338 1.257h-.044v-1.226a.122.122 0 0 0-.13-.13h-2.515a.114.114 0 0 0-.13.13V32.1a.114.114 0 0 0 .13.13h2.645a.122.122 0 0 0 .13-.13v-4.9h.044a3.473 3.473 0 0 0 1.338 1.171 4.725 4.725 0 0 0 3.859-.044 4.431 4.431 0 0 0 1.475-1.217 5.019 5.019 0 0 0 .868-1.734 7.984 7.984 0 0 0 .3-2.038 7.279 7.279 0 0 0-.3-2.168 5.064 5.064 0 0 0-.868-1.825 4.3 4.3 0 0 0-1.517-1.257 4.71 4.71 0 0 0-2.168-.477 4.1 4.1 0 0 0-1.775.389m10.707 3.9a3.417 3.417 0 0 1 .13-.563 2.412 2.412 0 0 1 .391-.737 1.966 1.966 0 0 1 .737-.563 2.358 2.358 0 0 1 1.17-.217 2.069 2.069 0 0 1 1.6.563 3.3 3.3 0 0 1 .694 1.517c0 .086-.044.174-.13.174h-4.423c-.13-.044-.173-.086-.173-.174m.3-3.86a6.784 6.784 0 0 0-1.734 1.171 5.4 5.4 0 0 0-1.128 1.778 6.247 6.247 0 0 0-.391 2.212 6.314 6.314 0 0 0 .391 2.255 5.3 5.3 0 0 0 1.084 1.778 5.029 5.029 0 0 0 1.691 1.128 6.148 6.148 0 0 0 2.255.391 5.447 5.447 0 0 0 3.078-.824 4.623 4.623 0 0 0 1.825-2.555c.044-.086-.044-.174-.13-.174h-2.3c-.044 0-.086.044-.13.086a2.19 2.19 0 0 1-.737.868 2.941 2.941 0 0 1-3.383-.217 2.66 2.66 0 0 1-.694-1.908.122.122 0 0 1 .13-.13h7.371a.114.114 0 0 0 .13-.13 7.375 7.375 0 0 0-.217-2.212 5.323 5.323 0 0 0-.954-1.994 4.632 4.632 0 0 0-1.647-1.387 5.036 5.036 0 0 0-2.341-.521 4.5 4.5 0 0 0-2.168.391m11.4 3.86a1.5 1.5 0 0 1 .13-.563 2.414 2.414 0 0 1 .391-.737 1.965 1.965 0 0 1 .737-.563 2.358 2.358 0 0 1 1.188-.218 2.068 2.068 0 0 1 1.6.563 3.3 3.3 0 0 1 .694 1.517c0 .086-.044.174-.13.174h-4.423c-.13-.044-.174-.086-.174-.174m.3-3.86a5.887 5.887 0 0 0-1.691 1.171 5.405 5.405 0 0 0-1.128 1.778 6.245 6.245 0 0 0-.391 2.212 6.314 6.314 0 0 0 .391 2.255 5.3 5.3 0 0 0 1.084 1.778 5.03 5.03 0 0 0 1.691 1.128 6.147 6.147 0 0 0 2.255.391 5.447 5.447 0 0 0 3.078-.824 4.624 4.624 0 0 0 1.825-2.555c.044-.086-.044-.174-.13-.174h-2.3c-.044 0-.086.044-.13.086a2.19 2.19 0 0 1-.737.868 2.941 2.941 0 0 1-3.383-.217 2.66 2.66 0 0 1-.693-1.908.114.114 0 0 1 .13-.13h7.371a.114.114 0 0 0 .13-.13 7.376 7.376 0 0 0-.217-2.212 5.322 5.322 0 0 0-.954-1.994 4.631 4.631 0 0 0-1.648-1.387 5.036 5.036 0 0 0-2.341-.521 4.585 4.585 0 0 0-2.212.391m9.409-4.206a.114.114 0 0 0-.13.13v14.357a.122.122 0 0 0 .13.13h2.645a.122.122 0 0 0 .13-.13v-3.474c0-.044 0-.086.044-.086l.954-.91a.151.151 0 0 1 .217.044l2.775 4.509a.159.159 0 0 0 .13.044h3.209a.146.146 0 0 0 .13-.217l-4.249-6.417a.131.131 0 0 1 0-.174l3.685-3.6a.122.122 0 0 0-.086-.217h-3.036c-.044 0-.086 0-.086.044l-3.383 3.513a.122.122 0 0 1-.217-.086V13.93a.122.122 0 0 0-.13-.13h-2.732z" class="prefix__cls-1" data-name="Path 13116" transform="translate(-217.001 -13.8)"/>
        </clipPath>
        <style>
            .prefix__cls-1{fill:#fe6400}.prefix__cls-2{fill:#470a00}
        </style>
    </defs>
    <g id="prefix__Group_10142" data-name="Group 10142" transform="translate(-8.628 -7.021)">
        <g id="prefix__Group_10138" data-name="Group 10138" transform="translate(74.962 27.516)">
            <path id="prefix__Path_13111" d="M236.92 100.7h5.293v24.507h-5.293v-3.129a8.347 8.347 0 0 1-7.6 3.772c-5.644 0-9.416-3.83-9.416-10.089V100.7h5.293v14.5c0 3.684 2.1 5.674 5.5 5.674 3.713 0 6.229-2.312 6.229-7.047V100.7z" class="prefix__cls-2" data-name="Path 13111" transform="translate(-219.9 -90.307)"/>
            <path id="prefix__Path_13112" d="M315.712 70.763a3.361 3.361 0 1 1 4.748-.01 3.372 3.372 0 0 1-4.748.01zm-.234 29.153v-24.5h5.293v24.5z" class="prefix__cls-2" data-name="Path 13112" transform="translate(-286.994 -65.019)"/>
            <path id="prefix__Path_13113" d="M355.385 120.58a12.572 12.572 0 0 1-3.685-9.18 12.431 12.431 0 0 1 3.684-9.183 12.635 12.635 0 0 1 9.27-3.714 12.084 12.084 0 0 1 10.937 6.316l-4.562 2.661a6.86 6.86 0 0 0-6.434-3.772 7.385 7.385 0 0 0-5.439 2.19 7.518 7.518 0 0 0-2.165 5.5 7.614 7.614 0 0 0 2.165 5.5 7.386 7.386 0 0 0 5.439 2.19 7.137 7.137 0 0 0 6.522-3.772l4.562 2.6a12.359 12.359 0 0 1-11.025 6.376 12.588 12.588 0 0 1-9.269-3.712z" class="prefix__cls-2" data-name="Path 13113" transform="translate(-313.158 -88.75)"/>
            <path id="prefix__Path_13114" d="M468.469 101.5h-6.316l-10.06-11.316V101.5H446.8V67.2h5.293v20.646L461.6 77h6.463l-10.8 12.02z" class="prefix__cls-2" data-name="Path 13114" transform="translate(-380.446 -66.603)"/>
        </g>
        <g id="prefix__Group_10141" data-name="Group 10141" transform="translate(73.95 7.021)">
            <g id="prefix__Group_10140" data-name="Group 10140">
                <path id="prefix__Path_13115" d="M232.046 17.876a.122.122 0 0 0-.13.13v5.421a4.065 4.065 0 0 1-.521 2.341 1.974 1.974 0 0 1-1.734.694 1.656 1.656 0 0 1-1.475-.651 3.869 3.869 0 0 1-.391-1.947v-5.858a.122.122 0 0 0-.13-.13h-2.645a.122.122 0 0 0-.13.13v6.379a7.5 7.5 0 0 0 .174 1.778 3.66 3.66 0 0 0 .608 1.387 2.962 2.962 0 0 0 1.171.868 4.892 4.892 0 0 0 1.908.3 4.591 4.591 0 0 0 1.825-.391 3.062 3.062 0 0 0 1.431-1.338h.044v1.341a.122.122 0 0 0 .13.13h2.519a.114.114 0 0 0 .13-.13V18.006a.114.114 0 0 0-.13-.13zm-9.93-.13a3.93 3.93 0 0 0-.954.477 3.164 3.164 0 0 0-.78.737 3.223 3.223 0 0 0-.563.91h-.044v-1.733a.2.2 0 0 0-.217-.217h-2.341a.2.2 0 0 0-.217.217v10.142a.2.2 0 0 0 .217.217h2.471a.2.2 0 0 0 .217-.217V23.73a6.731 6.731 0 0 1 .13-1.338 3.065 3.065 0 0 1 .477-1.084 2.213 2.213 0 0 1 .91-.737 3.233 3.233 0 0 1 1.338-.26 2.667 2.667 0 0 1 .563.044.55.55 0 0 1 .26.044.243.243 0 0 0 .26-.217v-2.3a.288.288 0 0 0-.174-.217 1.779 1.779 0 0 0-.477-.044 4.369 4.369 0 0 0-1.084.13m19.036 8.543a1.837 1.837 0 0 1-.78-.737 2.713 2.713 0 0 1-.433-1.084 6.142 6.142 0 0 1 0-2.515 3 3 0 0 1 .433-1.084 3.333 3.333 0 0 1 .78-.78 2.106 2.106 0 0 1 1.217-.3 1.962 1.962 0 0 1 1.17.3 3.333 3.333 0 0 1 .78.78 3 3 0 0 1 .433 1.084 5.89 5.89 0 0 1 .13 1.257 6.2 6.2 0 0 1-.13 1.257 3 3 0 0 1-.433 1.084 2.3 2.3 0 0 1-1.994 1.04 2.148 2.148 0 0 1-1.171-.3m0-8.282a3.122 3.122 0 0 0-1.338 1.257h-.044v-1.226a.122.122 0 0 0-.13-.13h-2.515a.114.114 0 0 0-.13.13V32.1a.114.114 0 0 0 .13.13h2.645a.122.122 0 0 0 .13-.13v-4.9h.044a3.473 3.473 0 0 0 1.338 1.171 4.725 4.725 0 0 0 3.859-.044 4.431 4.431 0 0 0 1.475-1.217 5.019 5.019 0 0 0 .868-1.734 7.984 7.984 0 0 0 .3-2.038 7.279 7.279 0 0 0-.3-2.168 5.064 5.064 0 0 0-.868-1.825 4.3 4.3 0 0 0-1.517-1.257 4.71 4.71 0 0 0-2.168-.477 4.1 4.1 0 0 0-1.775.389m10.707 3.9a3.417 3.417 0 0 1 .13-.563 2.412 2.412 0 0 1 .391-.737 1.966 1.966 0 0 1 .737-.563 2.358 2.358 0 0 1 1.17-.217 2.069 2.069 0 0 1 1.6.563 3.3 3.3 0 0 1 .694 1.517c0 .086-.044.174-.13.174h-4.423c-.13-.044-.173-.086-.173-.174m.3-3.86a6.784 6.784 0 0 0-1.734 1.171 5.4 5.4 0 0 0-1.128 1.778 6.247 6.247 0 0 0-.391 2.212 6.314 6.314 0 0 0 .391 2.255 5.3 5.3 0 0 0 1.084 1.778 5.029 5.029 0 0 0 1.691 1.128 6.148 6.148 0 0 0 2.255.391 5.447 5.447 0 0 0 3.078-.824 4.623 4.623 0 0 0 1.825-2.555c.044-.086-.044-.174-.13-.174h-2.3c-.044 0-.086.044-.13.086a2.19 2.19 0 0 1-.737.868 2.941 2.941 0 0 1-3.383-.217 2.66 2.66 0 0 1-.694-1.908.122.122 0 0 1 .13-.13h7.371a.114.114 0 0 0 .13-.13 7.375 7.375 0 0 0-.217-2.212 5.323 5.323 0 0 0-.954-1.994 4.632 4.632 0 0 0-1.647-1.387 5.036 5.036 0 0 0-2.341-.521 4.5 4.5 0 0 0-2.168.391m11.4 3.86a1.5 1.5 0 0 1 .13-.563 2.414 2.414 0 0 1 .391-.737 1.965 1.965 0 0 1 .737-.563 2.358 2.358 0 0 1 1.188-.218 2.068 2.068 0 0 1 1.6.563 3.3 3.3 0 0 1 .694 1.517c0 .086-.044.174-.13.174h-4.423c-.13-.044-.174-.086-.174-.174m.3-3.86a5.887 5.887 0 0 0-1.691 1.171 5.405 5.405 0 0 0-1.128 1.778 6.245 6.245 0 0 0-.391 2.212 6.314 6.314 0 0 0 .391 2.255 5.3 5.3 0 0 0 1.084 1.778 5.03 5.03 0 0 0 1.691 1.128 6.147 6.147 0 0 0 2.255.391 5.447 5.447 0 0 0 3.078-.824 4.624 4.624 0 0 0 1.825-2.555c.044-.086-.044-.174-.13-.174h-2.3c-.044 0-.086.044-.13.086a2.19 2.19 0 0 1-.737.868 2.941 2.941 0 0 1-3.383-.217 2.66 2.66 0 0 1-.693-1.908.114.114 0 0 1 .13-.13h7.371a.114.114 0 0 0 .13-.13 7.376 7.376 0 0 0-.217-2.212 5.322 5.322 0 0 0-.954-1.994 4.631 4.631 0 0 0-1.648-1.387 5.036 5.036 0 0 0-2.341-.521 4.585 4.585 0 0 0-2.212.391m9.409-4.206a.114.114 0 0 0-.13.13v14.357a.122.122 0 0 0 .13.13h2.645a.122.122 0 0 0 .13-.13v-3.474c0-.044 0-.086.044-.086l.954-.91a.151.151 0 0 1 .217.044l2.775 4.509a.159.159 0 0 0 .13.044h3.209a.146.146 0 0 0 .13-.217l-4.249-6.417a.131.131 0 0 1 0-.174l3.685-3.6a.122.122 0 0 0-.086-.217h-3.036c-.044 0-.086 0-.086.044l-3.383 3.513a.122.122 0 0 1-.217-.086V13.93a.122.122 0 0 0-.13-.13h-2.732z" class="prefix__cls-1" data-name="Path 13115" transform="translate(-217.001 -13.8)"/>
                <g id="prefix__Group_10139" data-name="Group 10139">
                    <path id="prefix__Rectangle_5970" d="M0 0H69.335V19.122H0z" class="prefix__cls-1" data-name="Rectangle 5970" transform="translate(-.045 .044)"/>
                </g>
            </g>
        </g>
        <g id="prefix__Group_10294" data-name="Group 10294" transform="translate(8.628 7.021)">
            <path id="prefix__Path_13117" d="M29.973 5.221a24.747 24.747 0 0 1 21.16 37.589l2.12 6.019a29.932 29.932 0 0 0 6.692-18.886A29.967 29.967 0 0 0 29.973 0 29.974 29.974 0 0 0 0 29.972a29.974 29.974 0 0 0 29.971 29.974 29.689 29.689 0 0 0 18.641-6.511l-2.4-4.79A24.751 24.751 0 1 1 29.973 5.221" data-name="Path 13117"/>
            <path id="prefix__XMLID_1_" d="M98.95 84.25a1.606 1.606 0 0 0-1.566.307l-5.743 4.822-5.005-12.259a1.628 1.628 0 0 0-2.12-.891 1.959 1.959 0 0 0-.43.243l-5.713 4.79a1.609 1.609 0 0 0-.461 1.874l7.462 18.3a1.628 1.628 0 0 0 2.12.891 1.287 1.287 0 0 0 .43-.276l5.62-4.7 11.823 17.105a.683.683 0 0 0 1.229-.552l-6.6-28.472a1.593 1.593 0 0 0-1.046-1.182z" class="prefix__cls-2" transform="translate(-53.899 -52.735)"/>
        </g>
    </g>
</svg>
