<svg xmlns="http://www.w3.org/2000/svg" width="28" height="28.643" viewBox="0 0 28 28.643">
    <path id="prefix__save" d="M99.1 111.678a2.284 2.284 0 0 0-2.312-.113l-4.621 2.24a2.409 2.409 0 0 0-1.038-.637l-6.906-2.149a15.662 15.662 0 0 0-6.451-.105v-.475a.832.832 0 0 0-.831-.825h-3.885a.832.832 0 0 0-.831.825v8.907a.831.831 0 0 0 .831.822h3.887a.831.831 0 0 0 .831-.825V118.2c1.037-.314 1.183-.331 1.474-.2a19.994 19.994 0 0 0 8.521 2.059c2.9 0 3.088-.092 7.827-2.438.9-.445 1.968-.976 3.254-1.6a2.347 2.347 0 0 0 1.366-1.984 2.635 2.635 0 0 0-1.116-2.355zm-22.995 6.841h-2.217v-7.257h2.221zm3.847-2.012a2.841 2.841 0 0 0-2.182-.028v-3.9a14.75 14.75 0 0 1 5.97.018l6.888 2.144A.707.707 0 0 1 91 115a.666.666 0 0 0 .131.343 1.043 1.043 0 0 1-.28.882.56.56 0 0 1-.611.078l-7.219-2.256a.837.837 0 0 0-1.045.539.823.823 0 0 0 .537 1.033h.007l7.2 2.253a2.483 2.483 0 0 0 .788.131 2.2 2.2 0 0 0 .632-.1 7.31 7.31 0 0 1-3.379.507 18.342 18.342 0 0 1-7.805-1.903zm18.164-1.97c-1.294.632-2.367 1.163-3.266 1.61-1.484.736-2.485 1.23-3.248 1.565a2.175 2.175 0 0 0 .362-.258 2.68 2.68 0 0 0 .842-2.121l4.712-2.284a.6.6 0 0 1 .648 0 1.012 1.012 0 0 1 .387.871.713.713 0 0 1-.437.62zm-7.02-3.329h.242c1.069 0 5.029-.126 6.963-1.93a3.385 3.385 0 0 0 1.128-2.447c.106-3.673-4.082-10.127-5.06-11.581a12.683 12.683 0 0 1 1.6-2.38.82.82 0 0 0 .1-.874.837.837 0 0 0-.752-.47h-8.435a.831.831 0 0 0-.752.47.818.818 0 0 0 .1.874 13.617 13.617 0 0 1 1.607 2.367c-.963 1.431-5.174 7.907-5.068 11.542.131 4.487 7.761 4.436 8.326 4.429zm2.564-18.037a7.8 7.8 0 0 0-.831 1.484h-3.456a7.863 7.863 0 0 0-.831-1.484zM89.12 96.3h3.964c1.557 2.329 4.762 7.719 4.682 10.477-.078 2.665-5.641 2.774-6.523 2.774h-.16c-.067 0-6.561.059-6.646-2.828-.08-2.712 3.125-8.094 4.682-10.421zm-.017 5.388h1.113a1.2 1.2 0 0 1 1.055.605h-2.11a.487.487 0 0 0-.5.44.452.452 0 0 0 .461.443h2.149a.705.705 0 0 1-.222.33 1.131 1.131 0 0 1-.831.33h-1.111a.44.44 0 0 0-.444.275.416.416 0 0 0 .111.495l2.721 2.474a.407.407 0 0 0 .333.11.4.4 0 0 0 .333-.165.5.5 0 0 0 0-.66l-1.832-1.7a2.268 2.268 0 0 0 1.388-.605 1.781 1.781 0 0 0 .555-.99h.666a.444.444 0 1 0 0-.88h-.666a2.055 2.055 0 0 0-.278-.6h.944a.331.331 0 0 0 .5-.33.453.453 0 0 0-.461-.442h-3.87a.487.487 0 0 0-.5.44.451.451 0 0 0 .46.444h.037z" transform="translate(-72.225 -91.525)" style="fill:#ff6200;fill-rule:evenodd"/>
</svg>
